<svg id="svg" version="1.1" xmlns="http://www.w3.org/2000/svg" xmlns:xlink="http://www.w3.org/1999/xlink" width="600" height="601.322860686234" viewBox="0, 0, 400,401.322860686234"><g id="svgg"><path id="path0" d="M196.154 84.789 C 192.883 85.101,186.015 86.783,185.180 87.476 C 185.053 87.581,184.950 87.624,184.950 87.572 C 184.950 87.461,183.283 88.149,181.304 89.076 C 180.541 89.434,179.974 89.785,180.045 89.855 C 180.116 89.926,180.044 89.935,179.886 89.874 C 179.721 89.810,179.599 89.842,179.599 89.949 C 179.599 90.050,179.505 90.134,179.390 90.134 C 179.039 90.135,175.743 92.409,175.878 92.557 C 175.947 92.633,175.921 92.649,175.821 92.592 C 174.989 92.118,165.685 101.729,166.165 102.567 C 166.225 102.673,166.212 102.703,166.137 102.634 C 166.061 102.566,165.659 103.016,165.244 103.635 C 164.531 104.699,135.536 162.375,135.715 162.375 C 135.761 162.375,135.719 162.469,135.620 162.584 C 135.376 162.870,106.018 221.572,106.119 221.572 C 106.164 221.572,106.122 221.666,106.026 221.781 C 105.877 221.960,93.956 245.669,93.962 245.774 C 93.964 245.795,93.779 246.233,93.552 246.746 C 92.872 248.283,91.777 251.712,91.863 252.038 C 91.906 252.205,91.886 252.307,91.817 252.264 C 91.634 252.151,91.026 254.949,90.710 257.358 C 90.198 261.266,90.620 269.891,91.415 271.739 C 91.546 272.045,91.580 272.211,91.613 272.711 C 91.627 272.923,91.710 273.053,91.797 272.999 C 91.885 272.944,91.925 273.062,91.886 273.264 C 91.847 273.463,91.868 273.710,91.932 273.812 C 91.995 273.913,92.069 274.137,92.096 274.308 C 92.249 275.294,93.927 279.599,94.158 279.599 C 94.238 279.599,94.261 279.712,94.208 279.849 C 94.153 279.992,94.204 280.100,94.324 280.100 C 94.442 280.100,94.490 280.148,94.433 280.205 C 94.150 280.487,97.383 285.695,99.513 288.390 C 101.761 291.235,107.426 296.488,107.934 296.200 C 108.031 296.145,108.054 296.162,107.986 296.238 C 107.864 296.372,108.876 297.159,109.256 297.225 C 109.362 297.243,109.824 297.500,110.284 297.795 C 115.325 301.034,122.447 303.245,129.236 303.678 C 132.836 303.907,267.169 303.906,270.819 303.677 C 274.650 303.436,279.131 302.594,281.436 301.684 C 281.851 301.520,282.830 301.140,283.612 300.840 C 284.821 300.377,287.436 299.086,290.671 297.357 C 291.104 297.126,291.412 296.862,291.355 296.770 C 291.299 296.679,291.335 296.654,291.435 296.716 C 292.010 297.072,298.302 291.363,300.334 288.642 C 300.564 288.334,300.892 287.923,301.063 287.729 C 302.118 286.526,306.175 280.017,305.869 280.017 C 305.851 280.017,306.057 279.528,306.328 278.930 C 307.557 276.212,308.838 271.819,308.924 270.025 C 308.937 269.772,308.993 269.565,309.050 269.565 C 309.409 269.565,309.732 262.953,309.560 259.133 C 309.426 256.140,307.900 249.742,306.783 247.492 C 306.578 247.078,306.402 246.681,306.392 246.610 C 306.332 246.188,305.928 245.318,305.791 245.318 C 305.703 245.318,305.680 245.268,305.741 245.207 C 305.801 245.146,304.505 242.456,302.860 239.229 C 299.282 232.208,296.739 227.115,295.987 225.460 C 295.683 224.793,295.359 224.247,295.265 224.247 C 295.171 224.247,295.145 224.197,295.206 224.136 C 295.267 224.075,292.558 218.563,289.186 211.887 C 282.533 198.718,281.892 197.433,281.190 195.861 C 280.934 195.286,280.646 194.816,280.551 194.816 C 280.457 194.816,280.429 194.766,280.490 194.705 C 280.552 194.643,277.805 189.056,274.386 182.288 C 267.466 168.589,267.087 167.828,266.554 166.590 C 266.348 166.111,266.101 165.719,266.005 165.719 C 265.909 165.719,265.881 165.669,265.942 165.608 C 266.003 165.546,263.181 159.809,259.671 152.857 C 252.960 139.565,252.037 137.713,251.683 136.831 C 251.563 136.532,251.394 136.288,251.308 136.288 C 251.221 136.288,251.194 136.218,251.246 136.134 C 251.298 136.049,251.246 135.878,251.130 135.754 C 251.014 135.629,250.895 135.417,250.865 135.282 C 250.834 135.147,250.721 134.981,250.614 134.912 C 250.506 134.844,250.481 134.787,250.557 134.785 C 250.634 134.784,247.930 129.308,244.549 122.617 C 237.737 109.135,237.863 109.387,236.879 107.273 C 235.848 105.060,233.530 101.484,231.819 99.469 C 229.507 96.745,223.976 91.823,223.521 92.084 C 223.415 92.144,223.384 92.132,223.453 92.056 C 223.776 91.699,218.448 88.783,215.090 87.479 C 209.244 85.209,202.213 84.210,196.154 84.789 M202.365 101.870 C 203.318 101.979,204.334 102.073,204.624 102.079 C 204.915 102.085,205.117 102.147,205.074 102.216 C 205.032 102.285,205.148 102.341,205.333 102.341 C 207.064 102.341,211.834 104.510,214.517 106.517 C 218.986 109.860,219.010 109.900,230.027 131.912 C 235.121 142.090,239.369 150.512,239.467 150.627 C 239.565 150.742,239.610 150.836,239.566 150.836 C 239.464 150.836,282.193 236.239,282.452 236.551 C 282.561 236.682,282.602 236.789,282.544 236.789 C 282.486 236.789,284.364 240.637,286.718 245.340 C 291.052 253.997,291.527 255.109,292.171 258.110 C 292.762 260.861,292.651 266.214,291.964 268.060 C 291.879 268.290,291.787 268.629,291.761 268.813 C 291.734 268.997,291.668 269.222,291.614 269.314 C 291.560 269.406,291.382 269.895,291.219 270.401 C 290.023 274.103,287.084 278.388,283.950 281.002 C 283.166 281.656,282.500 282.247,282.469 282.316 C 282.439 282.385,282.307 282.441,282.177 282.441 C 282.046 282.441,281.940 282.512,281.940 282.597 C 281.940 282.683,281.770 282.806,281.564 282.871 C 281.357 282.935,281.150 283.035,281.104 283.091 C 281.058 283.148,280.587 283.417,280.059 283.690 C 279.530 283.962,279.097 284.229,279.097 284.281 C 279.097 284.334,278.965 284.388,278.804 284.401 C 278.643 284.414,278.060 284.631,277.508 284.883 C 276.957 285.135,276.430 285.356,276.338 285.375 C 276.246 285.394,275.606 285.567,274.916 285.760 C 271.598 286.684,276.784 286.625,199.209 286.621 C 159.903 286.618,127.783 286.552,127.831 286.474 C 127.879 286.396,127.601 286.288,127.212 286.234 C 116.474 284.739,107.514 273.995,107.514 262.614 C 107.514 258.231,108.176 255.660,110.470 251.129 C 111.157 249.772,111.660 248.661,111.587 248.660 C 111.514 248.658,111.541 248.602,111.645 248.534 C 111.960 248.331,117.569 236.942,117.450 236.749 C 117.389 236.651,117.408 236.612,117.491 236.662 C 117.574 236.712,118.767 234.447,120.141 231.629 C 121.516 228.811,123.082 225.661,123.622 224.630 C 124.162 223.598,124.592 222.703,124.578 222.642 C 124.565 222.580,124.626 222.483,124.715 222.427 C 125.023 222.231,130.611 210.852,130.496 210.652 C 130.433 210.542,130.442 210.507,130.516 210.574 C 130.695 210.736,131.808 208.554,131.665 208.322 C 131.599 208.215,131.632 208.191,131.747 208.262 C 131.910 208.363,132.027 208.139,131.898 207.973 C 131.875 207.943,131.985 207.791,132.142 207.634 C 132.305 207.471,132.382 207.231,132.322 207.075 C 132.246 206.876,132.279 206.839,132.441 206.940 C 132.607 207.042,132.637 207.003,132.555 206.791 C 132.495 206.633,132.501 206.536,132.569 206.575 C 132.637 206.614,133.779 204.417,135.107 201.693 C 136.435 198.968,137.977 195.880,138.535 194.830 C 139.092 193.780,139.523 192.885,139.492 192.842 C 139.462 192.799,139.510 192.717,139.600 192.661 C 139.894 192.478,146.493 179.072,146.379 178.889 C 146.319 178.791,146.343 178.756,146.433 178.812 C 146.641 178.941,147.369 177.465,147.218 177.221 C 147.146 177.103,147.184 177.087,147.327 177.176 C 147.489 177.276,147.519 177.236,147.438 177.025 C 147.378 176.868,147.384 176.770,147.452 176.809 C 147.520 176.848,148.662 174.651,149.990 171.927 C 151.318 169.202,152.851 166.132,153.396 165.103 C 153.942 164.075,154.373 163.180,154.354 163.115 C 154.335 163.050,154.392 162.951,154.482 162.895 C 154.779 162.708,161.379 149.311,161.264 149.126 C 161.202 149.025,161.229 148.993,161.326 149.052 C 161.486 149.151,161.948 148.320,161.876 148.061 C 161.859 147.998,161.913 147.901,161.998 147.845 C 162.083 147.789,163.454 145.082,165.045 141.830 C 166.636 138.578,168.234 135.380,168.597 134.723 C 168.959 134.066,169.269 133.453,169.285 133.361 C 169.301 133.269,169.362 133.156,169.420 133.110 C 169.708 132.882,176.080 119.857,175.982 119.698 C 175.919 119.597,175.942 119.559,176.032 119.615 C 176.240 119.743,176.968 118.268,176.817 118.023 C 176.755 117.923,176.779 117.887,176.870 117.944 C 176.962 118.001,177.441 117.171,177.941 116.088 C 179.340 113.059,181.488 110.022,183.519 108.200 C 183.882 107.875,184.387 107.402,184.642 107.149 C 184.897 106.896,185.133 106.689,185.167 106.689 C 185.201 106.689,185.937 106.215,186.803 105.636 C 188.336 104.611,190.263 103.701,192.475 102.958 C 193.073 102.756,193.587 102.535,193.618 102.466 C 193.649 102.396,193.741 102.381,193.823 102.431 C 193.905 102.482,194.290 102.438,194.679 102.333 C 196.841 101.751,199.774 101.574,202.365 101.870 " stroke="none" fill="#5cec5c" fill-rule="evenodd"></path><path id="path1" d="" stroke="none" fill="#60ec5c" fill-rule="evenodd"></path><path id="path2" d="" stroke="none" fill="#60ec5c" fill-rule="evenodd"></path><path id="path3" d="" stroke="none" fill="#60ec5c" fill-rule="evenodd"></path><path id="path4" d="" stroke="none" fill="#60ec5c" fill-rule="evenodd"></path></g></svg>
