<svg xmlns="http://www.w3.org/2000/svg" xmlns:xlink="http://www.w3.org/1999/xlink" width="159" height="140" viewBox="0 0 159 140">
    <defs>
        <linearGradient id="a" x1="78.039%" x2="91.508%" y1="-31.455%" y2="109.345%">
            <stop offset="0%" stop-color="#48C7FF"/>
            <stop offset="100%" stop-color="#1F7DC2"/>
        </linearGradient>
        <linearGradient id="b" x1="50%" x2="91.508%" y1="12.697%" y2="109.345%">
            <stop offset="0%" stop-color="#48C7FF"/>
            <stop offset="100%" stop-color="#1F7DC2"/>
        </linearGradient>
        <linearGradient id="c" x1="118.862%" x2="5.244%" y1="-14.131%" y2="81.992%">
            <stop offset="0%" stop-color="#FFF"/>
            <stop offset="100%" stop-color="#68D75A" stop-opacity="0"/>
        </linearGradient>
        <linearGradient id="d" x1="46.42%" x2="87.151%" y1="10.092%" y2="132.256%">
            <stop offset="0%" stop-color="#FFF"/>
            <stop offset="100%" stop-color="#A9D4FF"/>
        </linearGradient>
        <radialGradient id="e" cx="81.487%" cy="13.893%" r="114.397%" fx="81.487%" fy="13.893%" gradientTransform="matrix(0 .39797 -1 0 .954 -.185)">
            <stop offset="0%" stop-color="#FFF"/>
            <stop offset="100%" stop-color="#F0F4FC"/>
        </radialGradient>
        <path id="g" d="M1.023 19.8L54.925.16c.43-.157.777.153.777.692v39.674c0 .539-.348 1.102-.777 1.259L1.023 61.425c-.43.156-.777-.154-.777-.692V21.059c0-.54.348-1.103.777-1.26z"/>
        <filter id="f" width="179.3%" height="171.7%" x="-43.3%" y="-35.9%" filterUnits="objectBoundingBox">
            <feOffset dx="-2" in="SourceAlpha" result="shadowOffsetOuter1"/>
            <feGaussianBlur in="shadowOffsetOuter1" result="shadowBlurOuter1" stdDeviation="7"/>
            <feComposite in="shadowBlurOuter1" in2="SourceAlpha" operator="out" result="shadowBlurOuter1"/>
            <feColorMatrix in="shadowBlurOuter1" values="0 0 0 0 0.0352941176 0 0 0 0 0.505882353 0 0 0 0 0.745098039 0 0 0 0.2 0"/>
        </filter>
    </defs>
    <g fill="none" fill-rule="evenodd">
        <path fill="#EEF3FC" d="M63.177 108.177l76.806 29.678 18.508-9.214-76.806-28.81z"/>
        <path fill="#C6E0FD" d="M63.177 100.758l76.532 29.412 18.782-8.949v-2.842l-18.508 9.274-76.806-29.678z"/>
        <path fill="#E4F0FE" d="M139.709 130.17l18.782-8.949v-2.842l-18.508 9.274z"/>
        <path fill="#FFF" d="M63.177 97.975l76.806 29.678 18.508-9.214-76.806-28.81z"/>
        <path fill="url(#a)" d="M46.73 25.552l15.457 7.888 18.782-7.888v-3.317L62.462 29.52 46.73 21.337z" transform="matrix(-1 0 0 1 147.372 72.52)"/>
        <path fill="url(#b)" d="M62.187 33.44l18.782-7.962v-3.243L62.462 29.52z" transform="matrix(-1 0 0 1 147.372 72.52)"/>
        <path fill="#319DDC" d="M101.086 94.346l-15.731 8.183-18.698-7.684 15.922-6.857z"/>
        <path fill="url(#a)" d="M23.596 34.195l15.457 7.888 18.782-6.93V18.82l-18.737 6.718-15.502-7.616z" transform="matrix(-1 0 0 1 147.372 72.52)"/>
        <path fill="url(#b)" d="M39.053 42.083l18.782-6.93V18.82l-18.737 6.718z" transform="matrix(-1 0 0 1 147.372 72.52)"/>
        <path fill="#319DDC" d="M123.715 90.22l-15.44 7.838-18.799-6.88 15.732-7.315z"/>
        <path fill="#68D75A" d="M146.91 116.388l-15.456 6.857-18.782-6.93V79.579l18.23 7.136 15.43-8.25z" opacity=".9"/>
        <path fill="url(#c)" d="M15.918 50.726l18.783-6.93.283-36.82-18.514 7.22z" transform="matrix(-1 0 0 1 147.372 72.52)"/>
        <path fill="#97ED8C" d="M146.332 78.464l-15.43 8.25-18.514-7.218 16.477-6.977z" opacity=".9"/>
        <g>
            <path fill="#FFFFFE" d="M42.704 29.1l.28 104.837c.013 4.625 3.249 7.14 7.227 5.619l41.04-15.698c3.979-1.521 7.194-6.504 7.181-11.129l-.28-104.836c-.013-4.625-3.249-7.14-7.227-5.619l-41.04 15.698c-3.979 1.521-7.194 6.504-7.18 11.129z"/>
            <path fill="url(#d)" d="M41.992 138.17L1.545 97.787a4 4 0 0 1 1.46-6.59l52.053-18.91 37.893 45.01-50.96 20.873z"/>
            <path fill="#A3CEFC" d="M87.04.443c2.03-.764 3.87-.508 5.2.523l3.451 2.29c-1.328-1.03-2.521-.389-4.551.375L49.517 19.284c-4.034 1.517-7.295 6.486-7.282 11.098l.284 104.538c.006 2.29.82 4.063 2.13 5.08l-4.098-3.188c-1.312-1.017-2.125-2.79-2.132-5.08l-.283-104.538c-.013-4.612 3.247-9.581 7.282-11.098L87.041.443z"/>
            <path fill="#FFFFFE" d="M42.704 27.27l.28 104.837c.013 4.625 3.249 7.14 7.227 5.619l41.04-15.698c3.979-1.521 7.194-6.504 7.181-11.129l-.28-104.836c-.013-4.625-3.249-7.14-7.227-5.619l-41.04 15.698c-3.979 1.521-7.194 6.504-7.18 11.129z"/>
            <path fill="url(#e)" d="M44.531 30.258l.259 100.62c.012 4.166 3.005 6.433 6.685 5.062l38.488-14.34c3.68-1.372 6.654-5.862 6.642-10.029l-.259-100.618c-.012-4.167-3.005-6.434-6.685-5.063L51.173 20.23c-3.68 1.372-6.654 5.862-6.642 10.028z"/>
            <path fill="url(#b)" d="M46.358 124.444l48.42-17.944V17.386L46.358 35.33z"/>
            <path fill="#FEFEFF" d="M49.122 76.863l42.915-15.996-.023-38.906L49.1 37.957zM49.122 118.954l42.915-15.996-.023-38.906L49.1 80.048z" opacity=".23"/>
            <g transform="translate(31.741 42.092)">
                <use fill="#000" filter="url(#f)" xlink:href="#g"/>
                <use fill="#FFF" xlink:href="#g"/>
                <path stroke="#F3F4F6" stroke-width="1.25" d="M.859 60.82L54.71 41.198c.168-.062.366-.383.366-.672V.852c0-.046.005-.072.012-.087L1.237 20.387c-.168.061-.366.383-.366.672v39.674a.216.216 0 0 1-.012.087z"/>
            </g>
            <path fill="#9BCAF9" d="M38.577 63.625l4.924-1.794v.976L38.577 64.6zM52.418 58.642l4.923-1.794v.975l-4.923 1.794zM65.928 53.622l4.924-1.794v.976l-4.924 1.794zM79.768 48.639l4.924-1.794v.975l-4.924 1.794z"/>
            <path stroke="#232425" stroke-linecap="square" d="M35.282 86.337l48.779-17.774M35.282 80.809l48.779-17.774M35.282 75.93l48.779-17.773M35.282 91.54l48.779-17.773M35.282 97.068l48.779-17.773" opacity=".1"/>
            <path stroke="#014799" stroke-linecap="round" stroke-linejoin="round" d="M34.294 87.837c2.221-1.456 4.12-3.38 5.695-5.772 2.362-3.588 2.953-5.223 5.653-3.696 2.7 1.527 3.417-.7 3.754 2.026.338 2.725 2.447 3.108 2.616 5.591.168 2.484 2.362 4.125 2.615-.953.253-5.078 1.224-6.99 3.08-8.394 1.856-1.403 1.392.947 3.122-.046 1.73-.994 2.53-6.437 4.43-4.038 1.897 2.398 2.277-.043 4.597-.464 2.32-.421 4.261-1.977 5.485-6.058 1.223-4.082 2.109-5.132 3.121-1.622 1.013 3.509 1.983 8.367 3.122 6.376 1.14-1.99 1.477-3.87 3.502-.306" opacity=".67"/>
            <path fill="#014799" d="M56.609 79.666c.858-.313 1.554-1.44 1.554-2.518 0-1.077-.696-1.697-1.554-1.384-.86.313-1.555 1.44-1.555 2.518 0 1.077.696 1.697 1.555 1.384z" opacity=".5"/>
            <path fill="#014799" d="M56.737 78.688c.37-.135.671-.622.671-1.088 0-.465-.3-.733-.671-.598-.372.135-.672.622-.672 1.088 0 .466.3.733.672.598zM36.59 65.68c.357-.13.647-.6.647-1.048 0-.45-.29-.708-.648-.577-.358.13-.648.6-.648 1.049 0 .449.29.707.648.577zM50.43 60.697c.357-.13.647-.6.647-1.049 0-.449-.29-.707-.648-.577-.358.13-.648.6-.648 1.05 0 .448.29.707.648.576zM64.27 55.714c.357-.13.647-.6.647-1.05 0-.448-.29-.706-.648-.576-.358.13-.648.6-.648 1.049 0 .449.29.707.648.577zM77.78 50.694c.358-.13.648-.6.648-1.049 0-.449-.29-.707-.648-.577-.358.13-.648.6-.648 1.05 0 .448.29.707.648.576z"/>
            <path fill="#A9D4FF" d="M68.284 121.865l.007 2.436c.005 1.505 1.103 2.324 2.454 1.829l5.152-1.89c1.35-.494 2.44-2.116 2.436-3.622l-.007-2.435c-.004-1.506-1.103-2.324-2.452-1.83l-5.152 1.89c-1.351.495-2.442 2.117-2.438 3.622z"/>
            <path stroke="#014799" stroke-dasharray="2.399999856948853,3.999999761581421" stroke-linecap="round" stroke-linejoin="round" stroke-width="1.6" d="M87.47 62.324L103 55.817v21.96"/>
        </g>
    </g>
</svg>
