<svg xmlns="http://www.w3.org/2000/svg" xmlns:xlink="http://www.w3.org/1999/xlink" width="133" height="147" viewBox="0 0 133 147">
    <defs>
        <filter id="a" width="119.6%" height="114.2%" x="-13.9%" y="-8.6%" filterUnits="objectBoundingBox">
            <feOffset dx="-4" dy="-2" in="SourceAlpha" result="shadowOffsetOuter1"/>
            <feGaussianBlur in="shadowOffsetOuter1" result="shadowBlurOuter1" stdDeviation="2.5"/>
            <feColorMatrix in="shadowBlurOuter1" result="shadowMatrixOuter1" values="0 0 0 0 0.00392156863 0 0 0 0 0.278431373 0 0 0 0 0.6 0 0 0 0.132642663 0"/>
            <feMerge>
                <feMergeNode in="shadowMatrixOuter1"/>
                <feMergeNode in="SourceGraphic"/>
            </feMerge>
        </filter>
        <path id="b" d="M6.022 44.355L94.657 2.547c.93-.431 1.683.187 1.683 1.38v82.881c0 1.195-.754 2.526-1.683 2.974L6.022 133.137c-.93.461-1.683-.15-1.683-1.367V47.363c0-1.216.753-2.563 1.683-3.008z"/>
        <path id="d" d="M10.093 30.485l59.64-28.772c.476-.23.86.077.86.683v26.759c0 .606-.384 1.284-.86 1.513L10.093 59.44c-.475.23-.86-.077-.86-.683v-7.228l-6.995-2.475 6.994-10.436v-6.62c0-.606.386-1.283.86-1.513z"/>
        <filter id="c" width="158.5%" height="169.1%" x="-43.9%" y="-34.6%" filterUnits="objectBoundingBox">
            <feOffset dx="-10" in="SourceAlpha" result="shadowOffsetOuter1"/>
            <feGaussianBlur in="shadowOffsetOuter1" result="shadowBlurOuter1" stdDeviation="5"/>
            <feComposite in="shadowBlurOuter1" in2="SourceAlpha" operator="out" result="shadowBlurOuter1"/>
            <feColorMatrix in="shadowBlurOuter1" values="0 0 0 0 0.0352941176 0 0 0 0 0.505882353 0 0 0 0 0.745098039 0 0 0 0.2 0"/>
        </filter>
        <linearGradient id="e" x1="50%" x2="91.508%" y1="12.697%" y2="109.345%">
            <stop offset="0%" stop-color="#48C7FF"/>
            <stop offset="100%" stop-color="#1F7DC2"/>
        </linearGradient>
        <path id="f" d="M18.562 60.712c8.73-4.55 15.808-15.416 15.808-24.27s-7.078-12.343-15.808-7.792C9.832 33.2 2.755 44.066 2.755 52.92c0 3.375 1.028 5.97 2.785 7.639a43.453 43.453 0 0 1-1.437 6.344c-.388 1.1-.17 1.436.653 1.007 1.174-.611 4.318-2.555 6.559-5.201 2.17.006 4.635-.636 7.247-1.997z"/>
        <linearGradient id="g" x1="-22.405%" x2="92.973%" y1="50%" y2="77.758%">
            <stop offset="0%" stop-color="#48C7FF"/>
            <stop offset="100%" stop-color="#0E71B9"/>
        </linearGradient>
    </defs>
    <g fill="none" fill-rule="evenodd">
        <g filter="url(#a)" transform="translate(9 7)">
            <path fill="#A3CEFC" d="M2.1 42.378L90.735.571c.432-.201.826-.175 1.124.03.18.125 2.055 1.048 3.795 1.99 1.049.568-.03 27.981-3.236 82.24 0 1.195-.753 2.526-1.683 2.974L5.23 133.101c-.452.224-3.991-1.746-4.293-1.975-.32-.243-.519-.708-.519-1.333V45.386c0-1.216.754-2.563 1.683-3.008z"/>
            <use fill="#FFF" xlink:href="#b"/>
            <path stroke="#F3F4F6" stroke-width=".96" d="M6.228 44.789c-.753.36-1.41 1.534-1.41 2.574v84.407c0 .89.412 1.224.993.936l88.637-43.357c.756-.364 1.412-1.523 1.412-2.54V3.927c0-.87-.42-1.215-.999-.946L6.228 44.789z"/>
            <path fill="#DFF3FD" d="M12.345 58.91l75.988-35.843c.797-.37 1.443.16 1.443 1.183v57.218c0 1.023-.646 2.164-1.443 2.549l-75.988 37.168c-.796.396-1.442-.129-1.442-1.171V61.488c0-1.043.646-2.197 1.442-2.579z"/>
            <path fill="#0DDF83" d="M17.482 44.867l16.428-7.826V40.6l-16.428 7.838zM43.768 31.9l16.428-7.756v3.54L43.768 35.45zM70.875 19.824l16.429-7.688v3.52l-16.429 7.7z"/>
        </g>
        <path fill="#A3CEFC" d="M69.208 47.48l60.883-28.962c.528-.246 2.039-.312 2.047 1.61l-.453 25.52c0 .606-.385 1.284-.86 1.513L71.5 77.47c-2.71.995-2.71-1.328-2.71-1.934v-6.832l-7.032-2.513 7.032-10.658v-6.62c0-.606-.058-1.205.417-1.434z"/>
        <g opacity=".96" transform="translate(61.62 17.951)">
            <use fill="#000" filter="url(#c)" xlink:href="#d"/>
            <use fill="#FFF" xlink:href="#d"/>
            <path stroke="#F3F4F6" d="M3.012 48.798l6.72 2.378v7.581c0 .265.03.288.143.233l59.641-28.773c.294-.141.578-.64.578-1.062V2.396c0-.265-.03-.288-.143-.233L10.31 30.936c-.294.142-.578.64-.578 1.062v6.772l-6.72 10.028z"/>
        </g>
        <path fill="#0DDF83" d="M94.925 45.632l20.588-9.813v3.069l-20.588 9.813z"/>
        <path fill="#C6E0FD" d="M94.925 51.195l29.746-14.178v1.535L94.925 52.73zM94.925 53.881l21.899-10.438v1.535L94.925 55.416z"/>
        <path fill="url(#e)" d="M7.692 30.848c4.06-1.935 7.352-7.37 7.352-12.137 0-4.768-3.291-7.064-7.352-5.129C3.63 15.518.339 20.952.339 25.72s3.292 7.064 7.353 5.128z" transform="translate(76.613 35.524)"/>
        <path fill="#FEFEFE" fill-rule="nonzero" d="M84.227 58.969c1.033-.493 1.974-2.66 1.974-4.546 0-1.637-.72-2.233-1.974-1.635-1.255.598-1.974 1.88-1.974 3.517 0 1.886.94 3.156 1.974 2.664z"/>
        <path fill="#FEFEFE" fill-rule="nonzero" d="M88.077 58.452c-.562-.13-1.74-.389-2.45-.444-.349.655-.857 1.191-1.4 1.476-.544.233-1.054.18-1.403-.144-.714.733-1.89 2.117-2.45 2.784a1.32 1.32 0 0 0-.314.81v.46c0 .379.233.59.551.5a25.438 25.438 0 0 0 3.616-1.32 32.937 32.937 0 0 0 3.616-2.127c.318-.213.552-.647.551-1.026v-.459c0-.27-.12-.464-.317-.51z"/>
        <g>
            <path fill="#C6E0FD" d="M36.284 137.372c8.73-4.55 15.808-15.416 15.808-24.27 0-8.853-7.077-12.342-15.808-7.792-8.73 4.55-15.807 15.416-15.807 24.27 0 3.376 1.029 5.972 2.786 7.64a43.453 43.453 0 0 1-1.438 6.344c-.228.648-.246 1.031-.054 1.149.089.054 1.239.966 2.102 1.522.439.283 2.923-4.219 5.164-6.866 2.171.007 4.635-.635 7.247-1.997z"/>
            <g transform="translate(19.834 78.182)">
                <use fill="#FFF" xlink:href="#f"/>
                <path stroke="#F3F4F6" d="M4.443 67.508a2.4 2.4 0 0 0 .082-.041c1.985-1.034 4.632-2.984 6.408-5.081l.15-.178h.233c2.136.007 4.527-.643 7.015-1.94 8.57-4.466 15.539-15.165 15.539-23.826 0-8.453-6.66-11.736-15.077-7.35C10.223 33.56 3.255 44.26 3.255 52.92c0 3.164.932 5.665 2.63 7.277l.189.18-.04.258a43.958 43.958 0 0 1-1.46 6.435c-.063.181-.105.33-.131.439z"/>
            </g>
            <path fill="url(#g)" d="M20.785 43.783c-3.098 1.615-3.705 4.285-6.324 4.377-2.795.098-7.558-2.484-9.451-3.946-2.67-2.06-4.261-5.58-4.261-10.307 0-11.222 8.97-24.995 20.036-30.762C26.818 0 32.227-.115 35.9 2.248c1.754 1.129 4.323 2.147 5.163 4.346.628 1.643-.243 4.245-.243 6.427 0 4.279-1.304 8.928-3.531 13.363.428 2.375 1.035 4.422 1.822 6.142.49.884.215 1.597-.828 2.14-1.488.776-5.472 2.466-8.313 2.073-2.752 2.876-5.875 5.319-9.186 7.044z" transform="translate(26.798 78.182)"/>
            <path fill="url(#e)" d="M23.74 45.642C12.676 51.41 3.706 46.988 3.706 35.766S12.675 10.77 23.74 5.004C34.806-.764 43.777 3.658 43.777 14.88c0 4.279-1.304 8.928-3.531 13.363.428 2.375 1.035 4.422 1.822 6.142.49.884.215 1.597-.828 2.14-1.488.776-5.472 2.466-8.313 2.073-2.752 2.876-5.875 5.319-9.186 7.044z" transform="translate(26.798 78.182)"/>
            <path fill="#F7FBFF" d="M57.162 102.214c1.229-.64 2.225-2.315 2.225-3.741 0-1.426-.996-2.063-2.225-1.422-1.23.64-2.225 2.315-2.225 3.741 0 1.426.996 2.063 2.225 1.422zm-6.65 3.466c1.23-.64 2.226-2.316 2.226-3.742 0-1.426-.996-2.062-2.225-1.422-1.229.64-2.225 2.316-2.225 3.742 0 1.425.996 2.062 2.225 1.422zm-6.596 3.438c1.23-.64 2.225-2.316 2.225-3.742 0-1.425-.996-2.062-2.225-1.422-1.229.64-2.225 2.316-2.225 3.742 0 1.426.996 2.062 2.225 1.422z"/>
        </g>
    </g>
</svg>
