<svg width="612" height="146" viewBox="0 0 612 146" fill="none" xmlns="http://www.w3.org/2000/svg">
<rect width="612" height="146" fill="white"/>
<rect x="2" y="8" width="193" height="133" rx="4" fill="white"/>
<path d="M116.17 104.347H81.726V42.9532H116.17V104.347Z" fill="#FF5F00"/>
<path d="M83.9326 73.645C83.9326 61.191 89.812 50.0974 98.9677 42.9482C92.2724 37.7203 83.8225 34.6 74.6393 34.6C52.8989 34.6 35.2758 52.0808 35.2758 73.645C35.2758 95.2093 52.8989 112.69 74.6393 112.69C83.8225 112.69 92.2724 109.57 98.9677 104.342C89.812 97.1927 83.9326 86.099 83.9326 73.645" fill="#EB001B"/>
<path d="M162.625 73.645C162.625 95.2093 145.002 112.69 123.261 112.69C114.078 112.69 105.628 109.57 98.9304 104.342C108.089 97.1927 113.968 86.099 113.968 73.645C113.968 61.191 108.089 50.0974 98.9304 42.9482C105.628 37.7203 114.078 34.6 123.261 34.6C145.002 34.6 162.625 52.0808 162.625 73.645" fill="#F79E1B"/>
<rect x="210" y="7" width="193" height="133" rx="4" fill="white"/>
<path d="M295.691 98.2156H282.842L290.879 51.6632H303.727L295.691 98.2156Z" fill="#15195A"/>
<path d="M342.271 52.8013C339.737 51.8593 335.717 50.8193 330.746 50.8193C318.057 50.8193 309.121 57.158 309.066 66.2205C308.961 72.9068 315.464 76.6205 320.328 78.8499C325.299 81.128 326.989 82.6149 326.989 84.6455C326.938 87.7642 322.972 89.2018 319.273 89.2018C314.142 89.2018 311.394 88.4606 307.216 86.7255L305.524 85.9817L303.726 96.4317C306.74 97.7179 312.292 98.8593 318.057 98.9093C331.539 98.9093 340.317 92.6687 340.421 83.0112C340.472 77.7118 337.038 73.6512 329.635 70.3331C325.141 68.2031 322.389 66.7668 322.389 64.5874C322.441 62.6062 324.717 60.5769 329.79 60.5769C333.967 60.4775 337.036 61.4181 339.361 62.3593L340.524 62.8537L342.271 52.8013V52.8013V52.8013Z" fill="#15195A"/>
<path fill-rule="evenodd" clip-rule="evenodd" d="M365.271 51.6632H375.21L385.577 98.2149H373.679C373.679 98.2149 372.515 92.8661 372.146 91.2318H355.648C355.171 92.4692 352.952 98.2149 352.952 98.2149H339.469L358.555 55.5257C359.878 52.5044 362.206 51.6632 365.271 51.6632ZM364.479 68.6988C364.479 68.6988 360.407 79.0494 359.349 81.7238H370.03C369.501 79.3963 367.068 68.2532 367.068 68.2532L366.17 64.242C365.792 65.2749 365.245 66.695 364.876 67.6528C364.626 68.3021 364.458 68.739 364.479 68.6988Z" fill="#15195A"/>
<path fill-rule="evenodd" clip-rule="evenodd" d="M259.525 83.4074L272.109 51.6632H285.696L265.499 98.1662H251.911L240.459 57.7163C236.507 55.5522 231.998 53.8117 226.955 52.6038L227.167 51.6632H247.84C250.643 51.7613 252.916 52.6032 253.656 55.5764L258.149 76.9659C258.15 76.9671 258.15 76.9682 258.15 76.9693L259.525 83.4074Z" fill="#15195A"/>
<rect x="417" y="6" width="193" height="133" rx="6.48117" fill="#006FCF"/>
<path fill-rule="evenodd" clip-rule="evenodd" d="M456.476 102.072V74.6919H487.501L490.83 78.7466L494.269 74.6919H606.883V100.183C606.883 100.183 603.938 102.044 600.532 102.072H538.175L534.422 97.7557V102.072H522.124V94.7041C522.124 94.7041 520.444 95.7326 516.812 95.7326H512.626V102.072H494.005L490.682 97.9301L487.307 102.072H456.476ZM420.328 54.0558L427.308 38.8148H439.38L443.342 47.3522V38.8148H458.348L460.706 44.9854L462.993 38.8148H530.357V41.917C530.357 41.917 533.898 38.8148 539.718 38.8148L561.575 38.8864L565.468 47.312V38.8148H578.026L581.483 43.6547V38.8148H594.156V66.1946H581.483L578.17 61.3391V66.1946H559.719L557.864 61.8786H552.904L551.078 66.1946H538.566C533.558 66.1946 530.357 63.1558 530.357 63.1558V66.1946H511.49L507.746 61.8786V66.1946H437.592L435.737 61.8786H430.793L428.952 66.1946H420.328V54.0558ZM420.364 62.6913L429.779 42.1901H436.917L446.323 62.6913H440.058L438.33 58.586H428.231L426.493 62.6913H420.364ZM436.341 54.1351L433.262 46.9614L430.175 54.1351H436.341ZM446.971 62.6879V42.1868L455.681 42.2171L460.748 55.4349L465.693 42.1868H474.334V62.6879H468.861V47.5818L463.06 62.6879H458.261L452.443 47.5818V62.6879H446.971ZM478.078 62.6879V42.1868H495.937V46.7726H483.609V50.2793H495.648V54.5954H483.609V58.237H495.937V62.6879H478.078ZM499.105 62.6913V42.1901H511.283C515.319 42.1901 518.934 44.5271 518.934 48.8412C518.934 52.5292 515.886 54.9047 512.931 55.1382L520.131 62.6913H513.444L506.882 55.408H504.578V62.6913H499.105ZM510.833 46.7759H504.578V51.0919H510.914C512.011 51.0919 513.426 50.2959 513.426 48.9339C513.426 47.8752 512.334 46.7759 510.833 46.7759ZM526.756 62.6879H521.168V42.1868H526.756V62.6879ZM540.006 62.6879H538.8C532.964 62.6879 529.42 58.382 529.42 52.5217C529.42 46.5165 532.924 42.1868 540.294 42.1868H546.342V47.0423H540.073C537.081 47.0423 534.965 49.2288 534.965 52.5722C534.965 56.5425 537.384 58.21 540.87 58.21H542.31L540.006 62.6879ZM542.499 62.6913L551.914 42.1901H559.052L568.458 62.6913H562.193L560.465 58.586H550.366L548.629 62.6913H542.499ZM558.476 54.1351L555.398 46.9614L552.31 54.1351H558.476ZM569.097 62.6879V42.1868H576.055L584.939 55.0674V42.1868H590.412V62.6879H583.679L574.57 49.4701V62.6879H569.097ZM460.22 98.565V78.0638H478.078V82.6496H465.751V86.1564H477.79V90.4724H465.751V94.1141H478.078V98.565H460.22ZM547.725 98.565V78.0638H565.583V82.6496H553.255V86.1564H565.238V90.4724H553.255V94.1141H565.583V98.565H547.725ZM478.771 98.565L487.467 88.4408L478.564 78.0638H485.459L490.761 84.4789L496.081 78.0638H502.705L493.92 88.3144L502.631 98.565H495.738L490.59 92.2511L485.567 98.565H478.771ZM503.281 98.5683V78.0672H515.37C520.33 78.0672 523.228 81.0612 523.228 84.9627C523.228 89.6725 519.533 92.0943 514.659 92.0943H508.898V98.5683H503.281ZM514.965 82.7036H508.898V87.4243H514.947C516.545 87.4243 517.665 86.4322 517.665 85.064C517.665 83.6075 516.539 82.7036 514.965 82.7036ZM525.604 98.565V78.0638H537.783C541.818 78.0638 545.433 80.4007 545.433 84.7149C545.433 88.4029 542.385 90.7783 539.43 91.0119L546.631 98.565H539.943L533.381 91.2817H531.077V98.565H525.604ZM537.333 82.6496H531.077V86.9656H537.414C538.51 86.9656 539.925 86.1696 539.925 84.8076C539.925 83.7489 538.833 82.6496 537.333 82.6496ZM568.118 98.565V94.1141H579.07C580.691 94.1141 581.393 93.2939 581.393 92.3944C581.393 91.5326 580.693 90.6612 579.07 90.6612H574.121C569.819 90.6612 567.423 88.2065 567.423 84.521C567.423 81.2338 569.617 78.0638 576.01 78.0638H586.667L584.363 82.6766H575.146C573.384 82.6766 572.842 83.5424 572.842 84.3693C572.842 85.2192 573.512 86.1564 574.858 86.1564H580.043C584.838 86.1564 586.919 88.7041 586.919 92.0403C586.919 95.6272 584.6 98.565 579.782 98.565H568.118ZM587.402 98.565V94.1141H598.354C599.975 94.1141 600.677 93.2939 600.677 92.3944C600.677 91.5326 599.977 90.6612 598.354 90.6612H593.405C589.103 90.6612 586.707 88.2065 586.707 84.521C586.707 81.2338 588.901 78.0638 595.294 78.0638H605.951L603.647 82.6766H594.43C592.668 82.6766 592.126 83.5424 592.126 84.3693C592.126 85.2192 592.796 86.1564 594.142 86.1564H599.326C604.122 86.1564 606.203 88.7041 606.203 92.0403C606.203 95.6272 603.884 98.565 599.065 98.565H587.402Z" fill="white"/>
</svg>
