<svg width="57" height="18" viewBox="0 0 57 18" fill="none" xmlns="http://www.w3.org/2000/svg">
<path d="M52.9398 0.947205H49.439C48.3443 0.947205 47.5205 1.25171 47.0545 2.32837L40.3345 17.6517H45.1035C45.1035 17.6517 45.8947 15.5963 46.0573 15.1613H51.8668C52.0077 15.7377 52.4196 17.6517 52.4196 17.6517H56.6358L52.9398 0.947205ZM47.358 11.7355C47.7265 10.7785 49.1355 7.04827 49.1355 7.04827C49.1355 7.04827 49.5257 6.06949 49.7533 5.47135L50.0568 6.90689C50.0568 6.90689 50.9347 10.8873 51.1081 11.7355H47.358Z" fill="#8854FF"/>
<path d="M34.2866 5.59099C34.2757 6.36314 35.262 6.88516 36.8445 7.65731C39.4566 8.85359 40.6705 10.2891 40.638 12.2032C40.6163 15.6724 37.5165 17.9128 32.7583 17.9128C30.7207 17.891 28.7697 17.4777 27.7075 17.021L28.347 13.2799L28.9214 13.5409C30.4063 14.1608 31.3818 14.4218 33.1919 14.4218C34.4925 14.4218 35.8907 13.9106 35.9124 12.7905C35.9232 12.0509 35.3162 11.5289 33.5604 10.7133C31.8262 9.91938 29.5501 8.58171 29.5826 6.18913C29.6043 2.94828 32.7692 0.664459 37.2455 0.664459C39.0014 0.664459 40.4212 1.03422 41.31 1.37136L40.6922 4.98197L40.2803 4.79709C39.4349 4.45995 38.3619 4.14457 36.877 4.15544C35.1103 4.14457 34.2866 4.89497 34.2866 5.59099Z" fill="#8854FF"/>
<path d="M27.6859 0.958099L24.857 17.6518H20.3264L20.8792 14.4109L21.7788 9.08198L23.1445 0.968975L27.6859 0.958099Z" fill="#8854FF"/>
<path d="M11.4063 9.56048C9.88887 5.69973 6.26876 2.4915 0.795258 1.16471L0.849454 0.827576H7.88373C8.83753 0.871077 9.60707 1.16471 9.8672 2.18699L11.4063 9.56048Z" fill="#8854FF"/>
<path d="M21.3127 0.979858L14.1701 17.6409H9.37943L5.31496 3.72045C8.23054 5.60188 10.7126 8.58172 11.5905 10.648L12.0674 12.3772L16.5112 0.979858H21.3127Z" fill="#8854FF"/>
</svg>
